HIERARCHY
ROOT hip
{
	OFFSET 0.000000 0.000000 0.000000 
	CHANNELS 6 Xposition Yposition Zposition Xrotation Zrotation Yrotation
	JOINT abdomen
	{
		OFFSET 0.000000 3.402643 0.000000 
		CHANNELS 3 Xrotation Zrotation Yrotation
		JOINT chest
		{
			OFFSET 0.000000 8.438565 -0.680529 
			CHANNELS 3 Xrotation Zrotation Yrotation
			JOINT neck
			{
				OFFSET 0.000000 10.207942 -0.272212 
				CHANNELS 3 Xrotation Zrotation Yrotation
				JOINT head
				{
					OFFSET 0.000000 3.130431 0.000000 
					CHANNELS 3 Xrotation Zrotation Yrotation
					End Site
					{
						OFFSET 0.000000 3.130435 0.000000 
					}
				}
			}
			JOINT lCollar
			{
				OFFSET 3.470700 6.669187 -0.816635 
				CHANNELS 3 Yrotation Zrotation Xrotation
				JOINT lShldr
				{
					OFFSET 3.198488 0.000000 0.000000 
					CHANNELS 3 Zrotation Yrotation Xrotation
					JOINT lForeArm
					{
						OFFSET 10.139888 0.000000 0.000000 
						CHANNELS 3 Yrotation Zrotation Xrotation
						JOINT lHand
						{
							OFFSET 8.370511 0.000000 0.000000 
							CHANNELS 3 Zrotation Yrotation Xrotation
							End Site
							{
								OFFSET 4.083176 0.000000 0.000000 
							}
						}
					}
				}
			}
			JOINT rCollar
			{
				OFFSET -3.470700 6.669187 -0.816635 
				CHANNELS 3 Yrotation Zrotation Xrotation
				JOINT rShldr
				{
					OFFSET -3.198488 0.000000 0.000000 
					CHANNELS 3 Zrotation Yrotation Xrotation
					JOINT rForeArm
					{
						OFFSET -10.139888 0.000000 0.000000 
						CHANNELS 3 Yrotation Zrotation Xrotation
						JOINT rHand
						{
							OFFSET -8.370511 0.000000 0.000000 
							CHANNELS 3 Zrotation Yrotation Xrotation
							End Site
							{
								OFFSET -4.083176 0.000000 0.000000 
							}
						}
					}
				}
			}
		}
	}
	JOINT lThigh
	{
		OFFSET 5.308129 -1.633274 1.361059 
		CHANNELS 3 Xrotation Zrotation Yrotation
		JOINT lShin
		{
			OFFSET -2.041588 -20.007561 0.000000 
			CHANNELS 3 Xrotation Zrotation Yrotation
			JOINT lFoot
			{
				OFFSET 0.000000 -19.190928 -1.224953 
				CHANNELS 3 Xrotation Yrotation Zrotation
				End Site
				{
					OFFSET 0.000000 -2.449906 4.627600 
				}
			}
		}
	}
	JOINT rThigh
	{
		OFFSET -5.308129 -1.633274 1.361059 
		CHANNELS 3 Xrotation Zrotation Yrotation
		JOINT rShin
		{
			OFFSET 2.041588 -20.007561 0.000000 
			CHANNELS 3 Xrotation Zrotation Yrotation
			JOINT rFoot
			{
				OFFSET 0.000000 -19.190928 -1.224953 
				CHANNELS 3 Xrotation Yrotation Zrotation
				End Site
				{
					OFFSET 0.000000 -2.449906 4.627600 
				}
			}
		}
	}
}
MOTION
Frames: 6
Frame Time: 0.033333
-0.536828 43.312332 -68.386772 3.339844 -6.689453 39.520344 19.072266 1.943359 -0.927734 -6.376953 1.748047 -0.302734 -15.644529 3.691406 -19.325542 4.746094 1.933594 -18.632483 1.376953 6.240234 0.185547 -79.990234 -32.001949 65.302734 -64.560547 -2.890625 -25.312004 15.078126 -6.181641 -1.680739 -4.570313 1.689453 -0.234375 67.871094 30.996092 14.062499 70.703125 3.427734 -47.549412 -18.730469 11.484954 -3.738675 -18.797674 25.325550 26.801926 52.440304 -0.278166 -3.296520 -30.320671 -2.459552 -8.863516 -40.776100 -19.858181 -20.372097 54.215336 -0.361249 3.062828 -8.284082 6.874659 7.795280 
-0.353894 43.235744 -68.044151 3.867188 -6.689453 37.763081 18.906248 2.011719 -1.269531 -6.552734 2.275390 -0.664063 -16.699219 2.988281 -18.280743 5.449219 1.406250 -17.577887 1.552734 6.064453 0.174750 -80.761719 -33.193359 66.992188 -63.701172 -2.871094 -25.908205 16.660156 -5.957031 -1.768590 -4.746094 1.337891 -0.263900 68.066406 32.734375 14.409576 68.144531 3.466797 -47.529293 -17.568357 12.617188 -3.689273 -17.236067 25.756565 28.630266 51.912262 -0.598186 -3.409146 -30.511122 -2.339502 -8.788093 -41.227394 -20.475040 -23.520170 56.862679 -0.400349 2.809648 -10.120250 0.645981 7.097398 
-0.041491 43.133121 -67.550331 4.218750 -6.328046 35.487545 18.388672 2.431641 -1.542554 -6.728516 2.451172 -1.015208 -17.402344 2.636719 -16.874424 6.152344 0.703125 -16.181643 1.728516 6.074219 0.156250 -81.513672 -34.589844 69.388985 -63.212887 -2.939453 -26.591297 18.183594 -4.306641 -1.338622 -4.921875 1.142578 -0.097851 68.378906 34.423828 14.507476 63.583988 3.476563 -46.465435 -13.632812 13.847657 -3.005474 -15.292817 24.984657 29.730076 51.927002 -0.102114 -3.354362 -30.617365 -0.584382 -7.740541 -40.935986 -21.238003 -29.743155 60.169903 -0.868919 3.392636 -12.496232 -8.484794 4.883695 
0.395385 42.989933 -66.887398 4.570313 -5.634766 32.147476 17.871094 3.154297 -1.561963 -7.080078 2.285156 -1.376564 -17.763672 2.460938 -14.951171 6.679688 -0.361328 -14.423891 1.884766 6.601563 0.291846 -82.333984 -35.781246 72.289215 -62.421879 -2.871094 -27.441406 19.033203 -2.333985 -0.879304 -4.921875 0.976563 -0.107588 68.417969 35.898438 15.327993 58.388672 3.437500 -46.015625 -11.445313 14.189452 -2.565965 -12.851860 23.891396 29.946274 52.625633 -0.407093 -3.356688 -30.277809 3.441823 -5.260221 -39.861546 -21.334284 -35.495770 62.819313 -0.712923 3.232739 -14.655394 -16.930313 2.196707 
0.889095 42.792473 -66.068733 4.570313 -4.755859 27.753094 17.529297 4.013671 -1.386719 -7.607422 1.933594 -1.396484 -17.587891 2.275390 -12.490233 7.373046 -1.943359 -12.138673 2.050781 7.304688 0.242899 -83.271484 -36.542969 75.244141 -61.406250 -2.880859 -27.284666 18.339846 0.390625 0.009834 -5.097657 0.800781 -0.117188 68.769531 37.294922 17.066463 52.373051 3.398438 -44.414642 -8.662110 14.013673 -1.875000 -10.234748 22.918137 31.265860 53.686543 -0.143797 -3.109491 -28.519688 7.477028 -3.287934 -39.013378 -20.185221 -38.548660 64.064224 -0.722453 3.125679 -17.787453 -20.661554 0.117389 
1.394311 42.566074 -65.123970 4.384766 -3.876953 22.304688 17.548828 5.185547 -0.957031 -8.310547 2.294922 -1.239843 -17.226563 1.406250 -9.491947 8.261719 -3.349610 -9.512289 2.207031 8.017578 0.369732 -84.013672 -37.392578 78.607353 -61.757813 -2.841797 -28.671389 18.496094 4.082031 1.192103 -5.273438 0.625000 -0.136719 69.667969 38.417969 19.879114 46.249996 3.447266 -42.978222 -8.691406 14.716795 -1.875000 -8.136032 22.838066 33.165462 57.553436 0.197017 -3.285087 -24.902683 11.204066 -1.917164 -38.788891 -17.802532 -36.103477 64.567703 -0.888596 3.375261 -20.729897 -22.169189 -1.624884 
